<svg xmlns="http://www.w3.org/2000/svg" xmlns:xlink="http://www.w3.org/1999/xlink" xmlns:inkscape="http://www.inkscape.org/namespaces/inkscape" version="1.1" width="33.57202" height="33.454988" viewBox="0 0 33.57202 33.454988">
<path transform="matrix(1,0,0,-1,0,33.454988)" d="M16.78699 3.42999 3.547 16.66998 16.78699 29.909 30.026 16.66998 16.78699 3.42999" fill="#477766"/>
<path transform="matrix(1,0,0,-1,0,33.454988)" d="M16.88 26.98999C18.116 26.98999 19.229 26.80298 20.22699 26.46899L16.78702 29.909 13.22501 26.34799C14.30099 26.75299 15.513 26.98999 16.88 26.98999Z" fill="#2c5142"/>
<path transform="matrix(1,0,0,-1,0,33.454988)" d="M16.88 7.05597C14.92401 7.05597 13.271 7.52197 11.91202 8.30597L16.78702 3.43097 21.46402 8.10797C20.17801 7.44897 18.65701 7.05597 16.88 7.05597Z" fill="#2c5142"/>
<path transform="matrix(1,0,0,-1,0,33.454988)" d="M25.26901 11.91299 30.026 16.66998 25.84003 20.85599C26.88303 17.97998 26.69101 14.608 25.26901 11.91299Z" fill="#2c5142"/>
<path transform="matrix(1,0,0,-1,0,33.454988)" d="M8.048 21.17099 3.547 16.66998 8.71301 11.50299C7.03 14.35699 6.811 18.08298 8.048 21.17099Z" fill="#2c5142"/>
<path transform="matrix(1,0,0,-1,0,33.454988)" d="M16.78601 2.25C16.483 2.25 16.18201 2.36499 15.95102 2.59497L2.71201 15.83499C2.25 16.29599 2.25 17.04501 2.71201 17.50601L15.95102 30.745C16.41302 31.20499 17.16 31.20499 17.621 30.745L30.86002 17.50601C31.32202 17.04501 31.32202 16.29599 30.86002 15.83499L17.621 2.59497C17.39001 2.36499 17.08902 2.25 16.78601 2.25M5.21701 16.67001 16.78601 5.10101 28.35501 16.67001 16.78601 28.23999 5.21701 16.67001" fill="#010202"/>
<path transform="matrix(1,0,0,-1,0,33.454988)" d="M23.37399 15.93799 23.362 15.94098C23.297 15.96198 23.233 15.97699 23.14798 15.996L21.22 16.466C20.983 16.81299 19.827 18.50598 19.694 18.711L19.44901 19.08798 19.46899 19.46399C19.478 19.66599 19.44199 19.86398 19.35999 20.05698L19.35098 20.077C19.629 20 19.90799 20.00497 20.14999 20.10098 20.616 20.27798 20.82999 20.73099 20.694 21.25299 20.51999 21.92499 20.185 22.565 19.69998 23.14999 19.276 23.66199 18.784 24.02899 18.24799 24.42798 17.93698 24.65799 17.58798 24.78 17.22198 24.759 16.86798 24.737 16.58099 24.569 16.41498 24.289L16.289 24.077C16.09198 23.746 15.89499 23.41498 15.68201 23.073 15.23999 22.79199 14.79498 22.51398 14.34799 22.23599 13.974 22.00098 13.82898 21.59399 13.95099 21.12198 14.02798 20.82397 14.103 20.52499 14.17599 20.22699 14.05499 20.03299 13.87299 19.76099 13.672 19.46198L13.33499 18.95499C13.26498 18.849 13.224 18.72598 13.21201 18.496 13.202 18.40399 13.10999 18.194 12.939 17.87L12.87299 17.73999C12.83099 17.64999 12.806 17.55298 12.79999 17.44998 12.745 17.38098 12.703 17.30298 12.67499 17.21698 12.64301 17.11798 12.569 16.884 12.60898 16.87799 12.439 16.819 12.328 16.72699 12.20898 16.61798 12.00299 16.51498 11.85001 16.32898 11.789 16.108 11.77798 16.06799 11.76999 16.02698 11.76498 15.98599L9.83701 15.03497C9.383 14.81299 9.198 14.37997 9.34198 13.87698 9.457 13.47 9.828 12.96799 10.51801 12.77499L11.67798 12.45999C11.90399 12.40399 12.129 12.34698 12.354 12.28497 12.55399 12.22998 12.78299 12.12 13.05099 11.99197L13.30701 11.87198C14.022 11.54199 14.63901 11.35999 15.25101 11.29999 15.49399 11.276 15.73898 11.26498 15.98499 11.26797 16.46799 11.272 16.94998 11.327 17.457 11.435 18.01999 11.55298 18.55399 11.75198 19.19199 12.07898 20.091 12.53998 20.944 12.89398 21.80298 13.16299 22.37299 13.34198 23.01999 13.54498 23.66599 13.62799 24.216 13.69998 24.55701 14.12698 24.49399 14.66599 24.43201 15.22299 23.97098 15.746 23.37399 15.93799Z" fill="#221f20"/>
<path transform="matrix(1,0,0,-1,0,33.454988)" d="M23.293 15.38C23.245 15.39502 23.19699 15.40701 23.121 15.423L22.59 15.552C21.99799 15.69601 21.40701 15.84 20.819 15.98502 20.80701 16.048 20.785 16.11099 20.74301 16.173 20.74301 16.173 19.31299 18.26501 19.16199 18.49899 19.035 18.69601 18.90799 18.89301 18.79999 19.056 18.80399 19.14301 18.80899 19.23001 18.81299 19.31702L18.82901 19.62201C18.83499 19.73599 18.81601 19.84702 18.771 19.952L18.44699 20.70801C18.53601 20.84 18.62701 20.97202 18.71899 21.104L19.07199 20.819C19.30499 20.63 19.578 20.57101 19.802 20.65802 20.039 20.74802 20.14301 20.97299 20.073 21.241 19.92499 21.815 19.63998 22.36002 19.22601 22.86002H19.22501C18.86301 23.297 18.42999 23.61902 18.01099 23.931L17.92099 23.99802C17.759 24.11902 17.578 24.17502 17.40399 24.16699 17.22501 24.155 17.07901 24.06702 16.991 23.91901L16.866 23.70801C16.651 23.34702 16.43701 22.987 16.20099 22.61401 15.73001 22.314 15.25601 22.01599 14.78101 21.72 14.57999 21.595 14.50601 21.38501 14.57199 21.13101 14.66699 20.76102 14.76001 20.39099 14.85101 20.021 14.742 19.828 14.50601 19.47501 14.237 19.073L13.90298 18.57199C13.87299 18.526 13.854 18.47202 13.849 18.414 13.84601 18.38 13.84601 18.34601 13.849 18.30499 13.815 18.02402 13.52399 17.526 13.46799 17.40701 13.42899 17.323 13.42999 17.224 13.45999 17.12701 13.38101 17.08701 13.32001 17.02301 13.293 16.93701 13.216 16.69901 13.11099 16.37302 12.94299 16.315 12.853 16.284 12.78601 16.229 12.694 16.15201 12.66199 16.125 12.629 16.09702 12.603 16.08002 12.508 16.034 12.439 15.94601 12.41199 15.84799 12.38901 15.76401 12.39899 15.672 12.43399 15.58401 12.25299 15.496 12.073 15.40802 11.89301 15.31799L10.22699 14.496C9.892 14.33301 9.91501 14.05301 9.95898 13.90201 9.995 13.77499 10.12799 13.46402 10.57401 13.34L10.82599 13.267C10.961 13.228 11.095 13.189 11.229 13.15399 11.38901 13.112 11.54901 13.07199 11.70898 13.03201 11.94101 12.974 12.172 12.91602 12.40399 12.85101 12.67099 12.77701 12.94299 12.647 13.23199 12.51001L13.48001 12.39301C14.11099 12.10199 14.64899 11.94202 15.173 11.89099 15.39301 11.86902 15.61301 11.85901 15.836 11.86099 16.276 11.866 16.72299 11.91699 17.19 12.01501 17.70099 12.12302 18.19598 12.30701 18.79401 12.61401 19.72 13.08701 20.59799 13.453 21.48001 13.729 22.07401 13.91501 22.746 14.12601 23.44199 14.216 23.72299 14.25201 23.88998 14.46201 23.858 14.73801 23.82599 15.02402 23.599 15.28201 23.293 15.38Z" fill="#221f20"/>
<path transform="matrix(1,0,0,-1,0,33.454988)" d="M16.69199 15.97699C16.12 15.87799 15.48297 15.853 14.84799 15.97299 14.42599 16.05298 14.06497 16.23599 13.758 16.48398 13.64697 16.19598 13.51898 15.88098 13.194 15.78699 13.13498 15.76999 12.94699 15.612 12.88498 15.603 12.883 15.59698 12.883 15.59299 12.88199 15.58798 15.78 13.73599 18.34799 14.78699 20.35098 15.879 20.01898 16.289 19.68799 16.69998 19.35599 17.10999 18.59598 16.60098 17.72897 16.15698 16.69199 15.97699Z" fill="#221f20"/>
<path transform="matrix(1,0,0,-1,0,33.454988)" d="M18.86899 22.79001C18.53098 23.24301 18.099 23.58502 17.67398 23.936 17.573 24.01901 17.47998 23.99902 17.42599 23.89801 17.16898 23.42001 16.91299 22.94101 16.65298 22.46402 16.62399 22.41101 16.57898 22.36502 16.53 22.33099 16.05798 21.99802 15.58298 21.66702 15.108 21.33801 15.03598 21.289 15.017 21.22501 15.03998 21.125 15.14297 20.68402 15.24197 20.242 15.33899 19.80002 15.349 19.758 15.34799 19.70901 15.33298 19.67502 15.20999 19.39902 14.78998 18.72702 14.32999 17.95502 14.32599 17.91101 14.33298 17.86401 14.328 17.82101 14.26797 17.26602 14.09 17.11502 13.918 16.71002 14.26898 16.26202 14.71399 15.827 15.228 15.754 15.81 15.672 16.37 15.75 16.879 15.91702 17.74298 16.20001 18.53699 16.70102 19.19199 17.29102 18.952 17.686 18.59097 18.323 18.35199 18.71899 18.32898 18.75702 18.314 18.80701 18.31598 18.84601 18.32397 19.08902 18.33899 19.33099 18.349 19.573 18.35098 19.621 18.34598 19.67401 18.328 19.72202 18.19998 20.05902 18.06598 20.39401 17.93698 20.73102 17.92499 20.763 17.922 20.80801 17.93597 20.83002 18.13599 21.15802 18.34 21.48401 18.54999 21.82101 18.57397 21.797 18.58899 21.78201 18.60498 21.76801 18.84998 21.548 19.09598 21.33002 19.34 21.11002 19.40698 21.04901 19.474 21.02802 19.53998 21.05701 19.60699 21.08502 19.62598 21.146 19.60599 21.229 19.47699 21.785 19.23199 22.30402 18.86899 22.79001Z" fill="#ffffff"/>
<path transform="matrix(1,0,0,-1,0,33.454988)" d="M23.233 14.95999C23.19 14.974 23.14499 14.98199 23.10199 14.992 22.29901 15.18698 21.496 15.38199 20.694 15.57898 20.681 15.58298 20.66602 15.59 20.65201 15.59799 18.51801 14.26801 15.552 13.50299 12.80701 15.21698 12.50699 15.073 12.211 14.92398 11.914 14.77698 11.45001 14.547 10.98502 14.31799 10.51901 14.09 10.44901 14.05499 10.397 14.01398 10.423 13.922 10.45001 13.82999 10.52301 13.79099 10.612 13.767 10.828 13.707 11.043 13.63998 11.259 13.58298 11.65302 13.47998 12.048 13.388 12.44202 13.27798 12.84399 13.16599 13.22501 12.96399 13.61002 12.78598 14.103 12.55798 14.604 12.38599 15.116 12.33499 15.771 12.271 16.39099 12.327 16.98801 12.453 17.535 12.56799 18.026 12.77698 18.495 13.017 19.367 13.46399 20.27399 13.854 21.23999 14.15698 21.89899 14.36398 22.56 14.56699 23.276 14.66 23.35001 14.66998 23.388 14.715 23.379 14.79099 23.37 14.871 23.31702 14.93298 23.233 14.95999Z" fill="#ffffff"/>
<path transform="matrix(1,0,0,-1,0,33.454988)" d="M23.233 14.95999C23.19 14.974 23.14499 14.98199 23.10199 14.992 22.29901 15.18698 21.496 15.38199 20.694 15.57898 20.681 15.58298 20.66602 15.59 20.65201 15.59799 18.51801 14.26801 15.552 13.50299 12.80701 15.21698 12.50699 15.073 12.211 14.92398 11.914 14.77698 11.45001 14.547 10.98502 14.31799 10.51901 14.09 10.44901 14.05499 10.397 14.01398 10.423 13.922 10.45001 13.82999 10.52301 13.79099 10.612 13.767 10.828 13.707 11.043 13.63998 11.259 13.58298 11.65302 13.47998 12.048 13.388 12.44202 13.27798 12.84399 13.16599 13.22501 12.96399 13.61002 12.78598 14.103 12.55798 14.604 12.38599 15.116 12.33499 15.771 12.271 16.39099 12.327 16.98801 12.453 17.535 12.56799 18.026 12.77698 18.495 13.017 19.367 13.46399 20.27399 13.854 21.23999 14.15698 21.89899 14.36398 22.56 14.56699 23.276 14.66 23.35001 14.66998 23.388 14.715 23.379 14.79099 23.37 14.871 23.31702 14.93298 23.233 14.95999Z" fill="#ffffff"/>
</svg>
